# xmcd CD database file
#
# Track frame offsets:
#	150
#	14470
#	30240
#	45995
#	60332
#	72127
#	86112
#	102300
#	121182
#	140015
#
# Disc length: 2141 seconds
#
# Revision: 2
# Processed by: cddbd v1.5.1PL2 Copyright (c) Steve Scherf et al.
# Submitted via: CDex 1.51
#
DISCID=79085b0a
DTITLE=Eddie Rabbitt - Ten Rounds
DYEAR=1991
DGENRE=Country
TTITLE0=747
TTITLE1=You Look Like An Angel
TTITLE2=I'll Get Along Without You Just Fine
TTITLE3=Hang Up The Phone
TTITLE4=Sorry That I'm Sorry Again
TTITLE5=C-Rap (Country Rap)
TTITLE6=You Are Everything To Me
TTITLE7=Destiny
TTITLE8=Will We Ever Love Again
TTITLE9=Wish I Had Somebody to Love
EXTD=YEAR: 1991
EXTT0=
EXTT1=
EXTT2=
EXTT3=
EXTT4=
EXTT5=
EXTT6=
EXTT7=
EXTT8=
EXTT9=
PLAYORDER=
